PathFileType	4	(X/Y/Z)	/Users/niels/Desktop/University/Third Semester/Perception and Action/Exam/Gymnastics Motion Tracking/Code for Gym Tracking/Analyzed Data/Webcam_Backflip/id2000_1_baseline_Sports2D/id2000_1_baseline_Sports2D_px_person00.trc
DataRate	CameraRate	NumFrames	NumMarkers	Units	OrigDataRate	OrigDataStartFrame	OrigNumFrames
29.88372093023256	29.88372093023256	12	22	m	29.88372093023256	32	258
Frame#	Time	Hip			RHip			RKnee			RAnkle			RBigToe			RSmallToe			RHeel			LHip			LKnee			LAnkle			LBigToe			LSmallToe			LHeel			Neck			Head			Nose			RShoulder			RElbow			RWrist			LShoulder			LElbow			LWrist		
		X1	Y1	Z1	X2	Y2	Z2	X3	Y3	Z3	X4	Y4	Z4	X5	Y5	Z5	X6	Y6	Z6	X7	Y7	Z7	X8	Y8	Z8	X9	Y9	Z9	X10	Y10	Z10	X11	Y11	Z11	X12	Y12	Z12	X13	Y13	Z13	X14	Y14	Z14	X15	Y15	Z15	X16	Y16	Z16	X17	Y17	Z17	X18	Y18	Z18	X19	Y19	Z19	X20	Y20	Z20	X21	Y21	Z21	X22	Y22	Z22
32	1.070817120622568	1.0766668258418717	-0.4813753111729253	0.0	1.0378532578761526	-0.4782523382486384	0.0	1.1474816079961723	-0.8813193279188991	0.0	1.1375536877769021	-1.086265806211067	0.0	1.265590969860266	-1.157270153307846	0.0	1.2055934282449647	-1.1160282288292274	0.0	0.9953956153954453	-1.0875688979138287	0.0	1.1211509617738387	-0.49078884770928394	0.0	1.069782458730957	-0.854047770640002	0.0	1.0365251372738016	-1.0665339995521435	0.0	1.1685022874353364	-1.0731249103450586	0.0	1.1834724953813096	-1.0735511176616008	0.0	1.0082213245069767	-1.0865246767100143	0.0	1.142376611490586	-0.04271440166155628	0.0	1.3087064820645486	-0.07638279493104001	0.0	1.2668176984663926	-0.01459240242277181	0.0	1.0929472335849737	-0.014955140458216883	0.0	1.018221644113656	-0.253368610735809	0.0	1.1170035952363533	-0.505159523149415	0.0	1.1801285848775376	-0.05924023684862956	0.0	1.1832813726300038	-0.32609902140392405	0.0	1.2807033561025665	-0.4755272176611838	0.0
33	1.1042801556420234	1.0750632302569747	-0.4831425325341376	0.0	1.0332187259550574	-0.47911156667463994	0.0	1.1391979405134252	-0.8745346303987964	0.0	1.1324083652854986	-1.082513403982422	0.0	1.2603858133670778	-1.1319672327615118	0.0	1.2058205193213136	-1.1157501062150128	0.0	0.9955272763660804	-1.087476856776385	0.0	1.118008997354694	-0.49137159010331044	0.0	1.0693819579679709	-0.8505709026024966	0.0	1.044494144052997	-1.0646501786255513	0.0	1.1715902534140248	-1.0726154871912763	0.0	1.1821026292482357	-1.0732449250388496	0.0	1.0119440588923287	-1.0844220009890424	0.0	1.1339189686786502	-0.04534417515752696	0.0	1.3087066647103078	-0.07629100727661212	0.0	1.2564156077310327	-0.014197147375965303	0.0	1.085957294870808	-0.015099797036952401	0.0	1.0078841175797848	-0.25208610288221533	0.0	1.0936159231235498	-0.5068052805330844	0.0	1.1718977343591634	-0.06381808660596044	0.0	1.1797703197038003	-0.32786722364890664	0.0	1.2758809769785595	-0.4787727330539017	0.0
34	1.1377431906614786	1.0749718689486927	-0.4845354414154063	0.0	1.03042214851358	-0.4800820451661683	0.0	1.1299635589357329	-0.8670891819123165	0.0	1.1233460040641334	-1.0791880455773235	0.0	1.252784519564637	-1.1090388624667042	0.0	1.2059814531710609	-1.1154675794212727	0.0	0.9957214748796477	-1.0873255077777373	0.0	1.1159769327556568	-0.4922727575554979	0.0	1.0731594022561852	-0.8471803382897827	0.0	1.055420154957771	-1.0622781135602415	0.0	1.1751074648526074	-1.071897675150736	0.0	1.1807268185629038	-1.072846401747516	0.0	1.019221767052682	-1.0813324832001179	0.0	1.1269041191280298	-0.04679700706934688	0.0	1.307541944411712	-0.07587636759694662	0.0	1.246969247741473	-0.013541388587656718	0.0	1.0794968353433727	-0.014933214023595919	0.0	0.9985811796743052	-0.25026040876322747	0.0	1.072029185573579	-0.5074721229383536	0.0	1.1668909018371802	-0.06724032139097394	0.0	1.175749262293549	-0.32898591086779727	0.0	1.2684782426949348	-0.4833905395405475	0.0
35	1.171206225680934	1.0754655840733813	-0.4850568507297563	0.0	1.0290765926339869	-0.4807236664385114	0.0	1.1198081233035067	-0.858966137692538	0.0	1.109774475673695	-1.0769622702652266	0.0	1.243023815719708	-1.0926687760376947	0.0	1.2058769312310105	-1.1153590527036388	0.0	0.9959402340714993	-1.0871294140187429	0.0	1.114518860586073	-0.49307878098395197	0.0	1.0809321772657334	-0.8434330742657702	0.0	1.0675875759612268	-1.0596400122670864	0.0	1.1785638398905554	-1.0711281021415116	0.0	1.1799747363626725	-1.072447536920935	0.0	1.0286289272429607	-1.0779184181564854	0.0	1.1205620673709524	-0.04726524400817474	0.0	1.3043165808372803	-0.07495065069863141	0.0	1.237912203272301	-0.012964612991546543	0.0	1.0735078869376216	-0.014743089494919792	0.0	0.9903227847373252	-0.24808390691909468	0.0	1.052473349342408	-0.5068136310676623	0.0	1.1635895157356562	-0.06965942203028877	0.0	1.1716230496578732	-0.33022059005475424	0.0	1.2588516287770424	-0.4891523442299174	0.0
36	1.204669260700389	1.0758225915840094	-0.48450256899137323	0.0	1.028907757526357	-0.4808738892876361	0.0	1.1092086582344627	-0.8505821288430887	0.0	1.0925699831233315	-1.0759304917387946	0.0	1.2317374470827982	-1.0837186675822292	0.0	1.2051976693516817	-1.1157429729021329	0.0	0.9960755023885992	-1.0869531008821456	0.0	1.1131626355372461	-0.4934217882468269	0.0	1.0908034700985778	-0.8390999306187443	0.0	1.0783675672024158	-1.0568206736015529	0.0	1.1816784497391017	-1.0705712543637247	0.0	1.180097137146466	-1.0721546536069546	0.0	1.036602765400454	-1.074589546322766	0.0	1.114710479489601	-0.046801678794987825	0.0	1.2982075749801991	-0.07339194383085769	0.0	1.2290089176727164	-0.012506058171410716	0.0	1.0681880192088908	-0.014627395441675477	0.0	0.9831238326179407	-0.24572766804738227	0.0	1.035249125522868	-0.5046778676945374	0.0	1.1608654037316573	-0.07116064421585104	0.0	1.1675642378341409	-0.3318456256096436	0.0	1.2475973571118075	-0.495713077985738	0.0
37	1.2381322957198444	1.0757417071407267	-0.4828887441796633	0.0	1.029761488463776	-0.4804346189091616	0.0	1.0991736889133712	-0.8426436210439162	0.0	1.0741795886125014	-1.0756473831161768	0.0	1.2200493965273638	-1.0806963110062766	0.0	1.2035701050514476	-1.11706888835781	0.0	0.9959201005125138	-1.0869399499677523	0.0	1.111634776674379	-0.49292979821768446	0.0	1.0996705238135398	-0.8342593344934852	0.0	1.0849957296176493	-1.0537630629663761	0.0	1.1839976496065605	-1.0704309675749204	0.0	1.180457041032979	-1.0720257679685288	0.0	1.0389644322429286	-1.0714926911564966	0.0	1.109569734083429	-0.04558970423798355	0.0	1.2889283799268059	-0.07125752133336322	0.0	1.2203990158538236	-0.012098122898182557	0.0	1.063678068355963	-0.014615023074567066	0.0	0.9770478262743771	-0.2434122850794999	0.0	1.0206625732443788	-0.5014132555615451	0.0	1.1581541714180312	-0.0717430722222623	0.0	1.163457781138196	-0.3335127592352963	0.0	1.235219197364661	-0.5024935177891771	0.0
38	1.2715953307392995	1.075316586496804	-0.48047727118264294	0.0	1.0314660907985247	-0.4794286981953214	0.0	1.0905122354594734	-0.8359343238823638	0.0	1.057516464935698	-1.0755464273495448	0.0	1.209215054835991	-1.0814579768988641	0.0	1.2007091365185845	-1.1198100970173206	0.0	0.9951987710698292	-1.0873018290019576	0.0	1.1099234621154057	-0.4914731781659467	0.0	1.1050025196523257	-0.8293534282704337	0.0	1.0863354827347271	-1.0503076484186442	0.0	1.185034010881878	-1.0707532292149764	0.0	1.180196441080525	-1.0720225566468018	0.0	1.0342663319941454	-1.0685904061779767	0.0	1.1053307075270464	-0.04406863998919634	0.0	1.276990662878679	-0.06877486616505094	0.0	1.2123663160462281	-0.011633744319473269	0.0	1.0597845119690805	-0.014721765643470006	0.0	0.9722302915413469	-0.2414126231988631	0.0	1.0089033495115802	-0.4978503579917666	0.0	1.1552243445371981	-0.07145539428481594	0.0	1.158836394826768	-0.3343652824460089	0.0	1.2220157579505468	-0.508599858335403	0.0
39	1.305058365758755	1.0748287538405774	-0.47779575669793173	0.0	1.0338431669832318	-0.47821006011335326	0.0	1.0831156521724574	-0.8309750674540224	0.0	1.0443395145411967	-1.075270046909505	0.0	1.1998905790302996	-1.0843889617463545	0.0	1.1966552957270962	-1.1242076680098947	0.0	0.9937515304211618	-1.088171274538409	0.0	1.1081815298993403	-0.48936538764837395	0.0	1.1060558854131948	-0.8249413213837561	0.0	1.083588492525875	-1.0463169398914214	0.0	1.1849568503214183	-1.0715336649223908	0.0	1.1791619812388547	-1.071978795300912	0.0	1.0253223356443635	-1.0657190612322054	0.0	1.1020983489277183	-0.04264235819207101	0.0	1.2635789454926198	-0.06615985447214079	0.0	1.205161686175071	-0.011052539345833112	0.0	1.0563208261194628	-0.014926435755491409	0.0	0.9688558213153421	-0.23997778951470702	0.0	1.0000015253508145	-0.49492191711186645	0.0	1.1518904684041	-0.07047995676664796	0.0	1.1528597292683032	-0.33328540246689564	0.0	1.2082446199101597	-0.5130216960508611	0.0
40	1.33852140077821	1.0746048124077248	-0.47548344861852326	0.0	1.0368686990998757	-0.477423912401305	0.0	1.0763456352737966	-0.8281402799107731	0.0	1.0348655969214933	-1.0746942323330377	0.0	1.1919612482701645	-1.0885022238115667	0.0	1.191900687486616	-1.1298637426052793	0.0	0.9917544223283711	-1.0893465244758218	0.0	1.1066460987805653	-0.4872608392907236	0.0	1.103470238800143	-0.821639397789728	0.0	1.0788345220371163	-1.0419265768038422	0.0	1.1841083960506018	-1.0727808524107967	0.0	1.1775336602713313	-1.0717062826095372	0.0	1.016650442927059	-1.0627433508363218	0.0	1.1000004124977012	-0.04135208258360343	0.0	1.2502334379340918	-0.06345394502524769	0.0	1.1989802234973104	-0.010389939227115867	0.0	1.0534452313801186	-0.015202222893924172	0.0	0.9671115604017194	-0.239260869946012	0.0	0.993917439406466	-0.49329884154787934	0.0	1.1479423469744217	-0.06895264623361298	0.0	1.144426456448228	-0.32927393111748715	0.0	1.1942878322514257	-0.5150462163110515	0.0
41	1.3719844357976654	1.0749270768587549	-0.47413359884510115	0.0	1.0405649094085938	-0.477735047727232	0.0	1.0698738377612842	-0.8279526621989678	0.0	1.0284774546875792	-1.0738280709559285	0.0	1.1849714512129081	-1.0928507128953369	0.0	1.1872354167945087	-1.1352166661690153	0.0	0.9896744453543691	-1.0902501136929308	0.0	1.105610607286583	-0.48592543874391697	0.0	1.0983078936853266	-0.8202396052447591	0.0	1.0734552653585925	-1.0376391989979499	0.0	1.181993703598443	-1.0744194048279692	0.0	1.1749964941908033	-1.0712049856977073	0.0	1.0106458060093397	-1.0596817848118576	0.0	1.0988814187428324	-0.03997050578262391	0.0	1.2383103629056575	-0.06056461236579107	0.0	1.193875920164383	-0.009659501750767381	0.0	1.051415592562949	-0.015584325618903064	0.0	0.967140225348458	-0.23929182560733972	0.0	0.9906574088830337	-0.4932753849984014	0.0	1.1430969988592936	-0.06677139059824573	0.0	1.1324116268879234	-0.3218240964318278	0.0	1.1805832331442025	-0.5144448469509304	0.0
42	1.4054474708171205	1.0757698500234616	-0.4741667707971017	0.0	1.0447311285359178	-0.47957005354149446	0.0	1.063877083722482	-0.8307920772565559	0.0	1.024331500660913	-1.0727658205287895	0.0	1.1785445859685773	-1.0964878735346921	0.0	1.183405884127054	-1.1378097737436408	0.0	0.9879787087358444	-1.0903175251825894	0.0	1.1051344761993553	-0.48600125027841445	0.0	1.0915061384362028	-0.8213902602710569	0.0	1.0680836333851873	-1.0340959338734295	0.0	1.1777828068840515	-1.0762456054746004	0.0	1.1710751322861364	-1.0706781371474958	0.0	1.0068857540444145	-1.0567346397786306	0.0	1.098063816586876	-0.038309833010599516	0.0	1.2284001990407012	-0.05743409959863889	0.0	1.1896844974885719	-0.008767197960215549	0.0	1.0502750419505475	-0.016148233355148523	0.0	0.9690198857701745	-0.23997525724149815	0.0	0.9903411448098064	-0.4948361877605387	0.0	1.1369281122377817	-0.06370626704782727	0.0	1.1161734767056712	-0.31126604082818154	0.0	1.1674717740428526	-0.5114346621614048	0.0
43	1.4389105058365759	1.076478752606628	-0.47556296887957766	0.0	1.0488290849957038	-0.48281548865005297	0.0	1.0587427463897743	-0.8364092779002785	0.0	1.0216662976703315	-1.0717552945164464	0.0	1.172638156132131	-1.0991466769063698	0.0	1.1808075276281935	-1.1363421117672512	0.0	0.986893889751158	-1.0894719639807697	0.0	1.1046016890877643	-0.4876566617200283	0.0	1.0837992272231012	-0.8250997702571518	0.0	1.0633170760181851	-1.0318132457729323	0.0	1.1715935562860604	-1.0779851635210598	0.0	1.1659999365311173	-1.0703257572598688	0.0	1.0043902761355674	-1.0543007062366865	0.0	1.0966814511851037	-0.03647569362319495	0.0	1.2203016878702264	-0.054148290539395294	0.0	1.1861569713807616	-0.007650755081104627	0.0	1.049858167627078	-0.01687875137232489	0.0	0.9727673597920217	-0.24113421728987852	0.0	0.9932278763899745	-0.49782269744863333	0.0	1.1290449834204352	-0.05976467916926593	0.0	1.0962373762753872	-0.2991490245245007	0.0	1.15521842501689	-0.506862894694106	0.0
